<svg xmlns="http://www.w3.org/2000/svg" viewBox="0 0 1254 1254" role="img" aria-label="decmpfs by socket labs">
  <defs>
    <!-- brand orange, anchored on #f15a24 -->
    <linearGradient id="orange" gradientUnits="userSpaceOnUse" x1="0" y1="69" x2="0" y2="1226">
      <stop offset="0" stop-color="#FF854A"/><stop offset="0.5" stop-color="#F15A24"/><stop offset="1" stop-color="#D8431A"/>
    </linearGradient>
    <!-- controlled brick-red fs accent -->
    <linearGradient id="red" gradientUnits="userSpaceOnUse" x1="0" y1="808" x2="0" y2="1153">
      <stop offset="0" stop-color="#EF4A1C"/><stop offset="1" stop-color="#C42711"/>
    </linearGradient>
  </defs>
  <g fill="url(#orange)">
    <path d="M614.5 70.1 C611.2 70.7 596.1 73.2 581.0 75.6 C513.8 86.6 442.5 102.5 380.0 120.5 C307.6 141.4 237.1 167.2 189.3 190.5 L170.2 199.8 L168.5 202.3 C164.5 208.5 153.4 290.2 146.9 361.5 C146.3 368.1 145.6 390.6 145.3 411.5 L144.8 449.5 L145.9 471.6 C148.9 528.2 159.4 595.9 174.0 651.5 C192.5 722.4 220.5 789.7 259.5 857.5 C308.5 942.5 389.7 1045.4 459.5 1110.9 C491.3 1140.6 519.6 1164.2 549.5 1185.5 C576.7 1205.0 604.4 1221.1 616.4 1224.5 L622.3 1226.2 L630.5 1225.8 L638.7 1225.4 L647.6 1221.1 C685.9 1202.8 749.9 1152.0 808.6 1093.5 C835.1 1067.1 847.9 1053.3 871.1 1026.3 C995.0 882.0 1072.7 731.9 1104.5 575.6 C1116.5 516.2 1120.9 476.0 1121.7 416.3 L1122.3 377.1 L1121.1 355.8 C1119.1 321.5 1112.4 253.2 1108.5 228.5 L1107.1 219.5 L1104.2 216.9 C1095.1 208.7 1048.1 186.6 996.5 166.3 C888.9 124.0 776.3 92.4 665.0 73.4 L644.5 69.9 L632.5 69.5 C625.9 69.3 617.8 69.6 614.5 70.1 Z M654.0 111.6 C727.3 122.6 840.1 151.8 923.5 181.5 C990.4 205.3 1063.9 236.1 1068.8 242.3 C1070.6 244.6 1075.1 279.7 1077.9 314.0 C1080.6 346.2 1080.9 350.6 1082.0 381.7 L1083.0 409.0 L1082.0 433.6 C1080.2 477.1 1075.6 514.8 1066.9 558.2 C1050.9 638.8 1027.1 707.9 989.8 782.5 C930.7 900.5 828.4 1031.0 726.5 1118.1 C690.7 1148.7 656.8 1173.6 637.6 1183.2 L629.7 1187.2 L626.6 1186.6 C622.7 1185.9 605.1 1176.1 592.1 1167.5 C501.7 1108.0 409.6 1012.6 333.5 900.0 C255.7 785.0 211.5 671.8 193.0 540.5 C183.8 475.9 182.4 413.7 188.5 346.0 C191.8 310.3 199.6 250.3 203.6 230.2 L204.3 226.9 L211.9 223.1 C231.1 213.4 273.4 196.5 311.5 183.2 C399.9 152.4 508.4 126.0 608.2 111.0 C629.2 107.9 629.0 107.9 654.0 111.6 Z"/>
    <path d="M612.4 148.2 C607.5 149.0 585.4 152.9 521.1 164.0 L509.0 166.1 L506.7 168.3 L504.4 170.5 L501.6 192.2 C500.2 204.2 498.5 215.1 497.8 216.4 C496.3 219.7 494.9 220.1 461.7 227.0 C418.0 236.0 385.2 243.3 346.8 252.5 C282.7 267.7 277.9 269.3 265.7 278.5 C253.8 287.4 244.7 301.3 240.7 316.7 C238.5 325.0 232.5 361.3 229.2 386.4 C225.8 410.6 226.5 420.0 232.3 431.8 L235.5 438.2 L241.6 443.8 C248.1 449.9 255.9 454.1 265.1 456.4 L270.7 457.8 L300.6 458.4 C317.0 458.8 385.4 459.7 452.5 460.6 L574.4 462.0 L577.1 461.0 C578.7 460.5 580.3 459.0 580.9 457.8 C581.4 456.5 583.3 445.6 585.1 433.5 C586.9 421.4 591.7 390.6 595.7 365.0 C605.1 306.1 624.6 179.4 626.8 163.3 L628.6 151.0 L626.6 149.0 L624.7 147.0 L621.4 147.1 C619.7 147.2 615.6 147.7 612.4 148.2 Z M488.0 306.2 C486.1 325.2 479.1 375.9 478.0 378.8 C477.3 380.6 475.8 382.5 474.5 383.1 L472.4 384.2 L423.5 384.0 C396.6 383.9 365.8 383.5 355.1 383.2 L335.5 382.5 L333.6 381.0 C332.7 380.2 331.4 378.5 330.9 377.3 L330.0 374.9 L332.6 359.7 C334.1 351.4 335.2 344.2 335.2 343.8 C335.2 343.4 336.9 341.2 339.0 339.0 L342.8 335.0 L351.4 332.6 C364.1 328.9 481.9 300.2 488.4 299.1 C488.6 299.0 488.4 302.3 488.0 306.2 Z"/>
    <path d="M702.6 172.5 C694.1 174.8 687.2 178.8 680.3 185.3 L674.3 191.1 L670.6 198.3 C664.4 210.3 663.5 214.9 643.7 339.5 C639.1 368.6 634.9 395.2 634.2 398.6 C632.7 407.6 633.0 421.4 634.9 428.3 C639.4 445.1 651.0 456.4 668.7 461.4 L674.1 462.9 L722.2 463.9 C748.6 464.5 795.5 465.4 826.4 466.0 C857.3 466.6 906.2 467.5 935.1 468.0 C1001.8 469.2 1036.6 469.3 1040.0 468.0 C1045.1 466.2 1045.9 462.7 1047.9 436.0 C1049.3 418.2 1049.4 400.0 1048.4 399.0 C1047.8 398.5 1022.4 397.6 991.8 397.0 C888.4 395.0 756.7 391.4 750.2 390.4 C748.4 390.2 746.1 389.1 745.0 388.0 L743.1 386.0 L744.5 377.2 C745.2 372.4 746.3 367.4 746.8 366.1 L747.7 363.7 L780.5 364.4 C798.6 364.7 817.8 365.2 823.2 365.5 C853.7 367.0 949.7 369.7 1002.4 370.6 L1043.4 371.3 L1045.8 369.0 L1048.2 366.7 L1047.5 357.1 C1046.4 340.9 1042.7 312.4 1041.0 306.4 C1037.4 293.3 1027.9 281.4 1013.8 272.7 C993.0 260.0 947.7 239.8 896.7 220.8 C846.1 201.9 804.5 189.3 752.4 176.9 L731.4 171.9 L719.8 171.4 L708.3 171.0 L702.6 172.5 Z M788.7 258.4 C809.3 262.6 862.2 279.1 886.8 289.0 C904.8 296.2 910.7 299.9 916.8 307.4 L918.3 309.3 L886.2 308.6 C840.3 307.6 768.8 305.1 763.7 304.4 L759.2 303.7 L759.7 301.6 C760.0 300.5 761.6 292.0 763.4 282.7 C767.2 263.2 767.6 262.0 771.4 259.1 L774.2 257.0 L778.0 257.0 C780.1 257.0 784.9 257.7 788.7 258.4 Z"/>
    <path d="M264.5 489.0 C246.7 492.0 234.0 505.5 228.8 527.0 C228.1 530.0 227.2 536.3 227.0 541.0 L226.5 549.5 L229.5 569.5 C234.2 601.6 243.0 648.0 249.9 677.5 C254.7 697.9 263.4 729.1 266.2 736.8 C273.5 756.6 286.6 771.1 301.9 776.6 L306.8 778.3 L369.8 778.7 L450.9 779.2 L453.4 777.7 L455.7 776.2 L454.4 761.4 C449.7 715.7 447.7 702.0 446.5 700.6 L445.1 699.0 L419.5 698.9 C405.3 698.9 381.3 698.5 366.1 698.1 L338.4 697.4 L332.8 695.4 L327.2 693.5 L323.6 689.0 C318.8 680.5 307.1 623.2 302.6 592.4 L300.5 577.9 L301.4 574.0 L302.4 570.0 L304.8 568.5 L307.1 567.0 L362.6 567.0 L424.7 567.0 L425.7 564.7 L426.7 562.5 L423.4 546.5 C421.5 537.7 418.3 522.2 416.1 512.0 L412.0 493.6 L410.6 491.9 L409.2 490.2 L356.7 489.6 C328.0 489.3 298.2 488.9 287.7 488.7 C277.2 488.5 266.7 488.7 264.5 489.0 Z"/>
    <path d="M498.4 493.5 C482.3 495.5 476.2 497.9 468.4 505.1 C461.6 511.4 458.4 518.3 457.6 527.9 L457.1 535.6 L460.7 565.0 C462.8 581.1 468.1 621.5 472.6 654.8 C477.2 687.9 483.1 729.1 485.6 746.1 L490.4 777.2 L492.1 778.1 C493.6 778.9 544.8 779.8 560.7 779.3 L566.7 779.1 L567.9 777.1 C568.6 776.0 569.0 772.3 568.5 767.9 C568.1 764.0 566.8 745.1 565.6 726.0 C564.4 706.9 562.2 666.4 560.6 635.9 L558.0 580.4 L559.3 577.2 C560.1 575.6 561.7 573.5 563.0 572.7 L565.3 571.1 L576.7 571.1 L588.1 571.1 L591.3 573.6 L594.5 576.0 L595.2 580.4 C596.1 586.6 596.5 610.9 597.4 691.4 C597.5 702.3 598.2 725.8 599.0 743.9 L600.4 776.4 L601.6 778.2 L602.9 780.0 L639.6 780.0 L676.3 780.0 L677.7 778.2 L679.1 776.5 L681.2 728.5 C682.5 702.1 684.6 665.2 685.8 646.4 C687.1 627.5 688.6 605.8 689.0 597.8 C690.2 580.5 690.9 577.8 695.1 574.6 L698.5 572.1 L711.5 572.1 L724.6 572.1 L727.7 574.1 C729.5 575.3 731.3 577.6 731.9 579.4 C732.3 581.4 731.7 592.2 730.2 605.9 C724.8 658.5 720.8 701.5 717.7 738.2 L714.7 777.2 L716.1 778.6 L717.3 780.0 L753.0 780.0 L788.7 780.0 L789.7 778.7 C790.3 778.0 792.9 763.5 795.5 746.3 C798.3 729.2 802.7 702.0 805.6 686.0 C808.5 669.9 813.2 644.3 816.0 629.0 C818.9 613.8 824.0 587.4 827.5 570.6 L833.9 539.9 L833.3 531.3 L832.6 522.6 L829.4 516.7 L826.1 510.7 L820.4 506.4 C813.3 501.0 809.3 499.2 799.5 497.4 L791.8 495.9 L737.6 495.2 L683.5 494.6 L675.8 495.8 C666.0 497.4 657.0 501.2 650.4 506.5 L645.2 510.6 L639.4 506.1 C632.1 500.5 621.3 496.4 610.6 495.0 C602.7 494.1 504.7 492.8 498.4 493.5 Z"/>
    <path d="M871.3 495.0 C869.9 495.6 867.9 497.3 867.0 498.9 L865.4 501.7 L863.4 515.1 C858.9 544.8 845.5 632.1 841.7 656.0 C839.5 670.0 836.6 688.9 835.2 698.0 C833.8 707.1 830.7 727.3 828.1 743.0 C825.7 758.7 823.6 773.3 823.5 775.5 L823.4 779.5 L852.8 779.8 L882.2 780.0 L883.1 778.8 C883.5 778.1 885.4 768.0 887.2 756.5 C889.1 744.9 891.2 733.6 891.8 731.2 L893.1 726.9 L896.3 725.0 L899.4 723.0 L931.5 723.0 L963.5 723.0 L969.9 721.0 C981.2 717.4 990.6 709.4 997.5 697.5 C1003.9 686.5 1005.2 682.6 1015.7 638.5 C1021.5 614.1 1031.0 570.1 1032.9 558.8 C1035.5 543.2 1034.8 533.1 1030.1 521.4 L1027.2 514.3 L1023.1 509.6 C1018.2 503.9 1010.8 499.5 1003.1 497.6 L997.5 496.2 L951.1 495.6 C925.7 495.2 897.9 494.8 889.3 494.5 C880.4 494.3 872.8 494.5 871.3 495.0 Z M961.9 574.0 C964.8 576.2 965.8 579.4 965.1 584.5 C963.9 593.9 955.2 632.0 953.5 635.8 L951.5 640.0 L948.1 642.2 L944.6 644.4 L928.9 644.8 C920.3 645.0 911.6 644.9 909.7 644.5 L906.0 643.9 L906.4 641.7 C906.6 640.5 909.0 626.8 911.7 611.3 C914.4 595.7 917.1 581.4 917.7 579.5 C918.4 577.6 920.2 575.1 921.6 574.0 L924.3 572.0 L941.8 572.0 L959.3 572.0 L961.9 574.0 Z"/>
  </g>
  <g fill="url(#red)">
    <path d="M461.4 810.0 C451.2 812.6 444.5 816.4 437.3 823.3 C426.5 833.6 421.1 844.5 419.0 860.0 L417.9 868.3 L419.5 881.7 L421.2 895.0 L419.6 897.5 L418.0 900.0 L397.9 900.0 L377.9 900.0 L377.3 901.6 L376.7 903.1 L381.6 910.3 C400.0 937.3 434.5 980.7 459.9 1009.0 C485.3 1037.2 544.7 1093.9 547.2 1092.4 C548.7 1091.5 548.1 1088.2 539.1 1050.2 C534.2 1029.5 529.0 1007.1 527.6 1000.4 L524.9 988.3 L525.9 985.7 C526.5 984.3 527.8 982.6 528.9 982.1 L530.9 981.0 L564.4 981.0 L597.9 981.0 L599.4 979.4 C600.3 978.6 601.0 977.5 601.0 977.0 C601.0 976.5 603.3 962.1 606.0 944.9 C609.0 926.4 610.7 913.3 610.1 912.7 C609.6 912.2 588.1 911.7 561.4 911.6 L513.5 911.4 L510.2 909.7 C506.3 907.6 505.2 905.0 504.4 896.2 L503.9 889.5 L505.7 886.0 C506.7 884.1 509.1 881.7 511.0 880.5 L514.5 878.5 L565.8 878.2 L617.1 877.9 L618.0 875.7 C618.4 874.5 619.7 867.4 620.9 860.0 C622.0 852.6 624.1 839.2 625.5 830.3 C627.0 821.3 628.0 812.8 627.8 811.3 L627.5 808.5 L548.0 808.3 L468.5 808.1 L461.4 810.0 Z"/>
    <path d="M683.2 809.6 C665.9 814.2 652.9 826.4 647.0 843.6 C645.9 846.7 643.2 859.9 641.0 872.9 C638.9 885.9 635.4 905.7 633.5 917.0 L629.8 937.5 L629.8 945.5 L629.9 953.6 L631.9 959.1 C636.0 969.8 645.8 977.6 658.4 979.9 C661.8 980.5 676.7 981.0 693.2 981.0 C709.0 981.0 722.0 981.4 722.0 981.8 C722.0 983.3 711.9 997.1 707.8 1001.2 C705.6 1003.4 701.3 1006.4 698.1 1007.8 L692.5 1010.4 L666.0 1011.1 C651.4 1011.5 630.9 1011.9 620.4 1011.9 L601.2 1012.0 L600.0 1013.4 C598.6 1015.2 579.8 1117.8 580.5 1120.0 C581.1 1121.8 595.2 1132.2 613.3 1144.4 L626.0 1153.0 L628.8 1153.0 C633.7 1153.0 646.3 1145.1 670.7 1126.8 C727.2 1084.5 789.7 1022.5 820.2 978.5 C827.2 968.4 831.2 961.2 834.1 953.5 L836.4 947.5 L836.5 939.0 L836.5 930.5 L833.4 925.0 L830.3 919.5 L824.9 916.2 C822.0 914.4 817.9 912.4 816.0 911.8 L812.5 910.6 L765.5 910.1 C739.7 909.7 717.7 909.1 716.7 908.6 C714.0 907.3 713.6 903.5 715.3 895.0 C717.2 885.6 718.8 882.8 723.8 880.3 L727.5 878.5 L798.1 878.0 L868.8 877.5 L870.9 875.6 C873.8 872.9 907.0 816.3 909.6 809.5 L910.2 808.0 L799.4 808.1 L688.5 808.1 L683.2 809.6 Z"/>
  </g>
  <g font-family="Helvetica Neue, Helvetica, Arial, sans-serif" font-size="60" font-weight="600" letter-spacing="3" text-anchor="start">
    <text x="880" y="1112" fill="#9A948C">by</text>
    <text x="800" y="1188"><tspan fill="#C9C3BB">socket</tspan><tspan dx="18" fill="#F5F2EC">labs</tspan></text>
  </g>
</svg>
