<svg xmlns="http://www.w3.org/2000/svg" viewBox="0 0 996 360" role="img" aria-label="deCMPfs for npm"><g transform="translate(0.000000,256.000000) scale(0.100000,-0.100000)"
fill="#1a1626" stroke="none">
<path d="M4497 2534 l-118 -13 -179 -163 -180 -162 0 -956 0 -955 113 -112
112 -111 155 -11 155 -11 33 0 32 0 0 954 0 953 121 8 120 7 20 -18 19 -17 0
-952 0 -952 83 -6 82 -7 141 0 141 0 91 6 92 7 0 963 0 964 84 0 83 0 62 -6
61 -7 0 -950 0 -949 43 5 42 6 152 12 152 12 115 117 116 117 -3 952 -4 953
-144 143 -144 143 -215 21 -215 20 -126 6 -126 7 -85 -92 -85 -91 -68 70 -68
70 -14 21 -14 20 -257 -1 -257 -1 -118 -14z"/>
<path d="M3420 2314 l-405 -94 -157 -157 -158 -158 0 -676 0 -675 68 -64 67
-64 96 -94 96 -94 406 -78 406 -78 20 -7 21 -6 0 300 0 301 -17 0 -18 0 -85
10 -85 10 -214 24 -214 25 -23 22 -24 22 0 472 0 472 25 23 24 23 123 18 123
19 170 25 170 25 23 5 22 5 0 248 0 249 -23 21 -23 22 -5 -1 -4 -1 -405 -94z"/>
<path d="M6590 1223 l0 -1159 238 53 237 53 17 6 18 5 2 182 3 182 268 35 268
36 109 109 110 110 0 505 -1 505 -129 132 -129 131 -488 132 -488 131 -17 5
-18 5 0 -1158z m781 476 l19 -24 0 -316 0 -316 -17 -15 -18 -16 -125 -3 -125
-4 -3 365 -2 365 4 11 4 10 122 -16 123 -17 18 -24z"/>
<path d="M1215 2210 l-70 -18 -157 -38 -157 -37 -3 -146 -3 -146 -312 -45
-313 -45 -95 -95 -95 -95 0 -360 0 -360 92 -92 93 -92 220 -35 220 -35 306
-51 306 -50 22 0 21 0 0 880 0 880 -2 -1 -3 -1 -70 -18z m-385 -1026 l0 -267
-47 6 -48 6 -130 12 -130 11 -18 16 -17 15 0 197 0 198 18 20 17 21 135 14
135 14 43 2 42 1 0 -266z"/>
<path d="M2340 2069 l-35 -8 -330 -67 -330 -66 -112 -117 -112 -116 -1 -488 0
-489 113 -114 112 -114 445 -75 446 -75 17 0 17 0 0 224 0 225 -8 5 -8 5 -339
31 -340 31 -13 4 -13 5 3 87 3 88 357 3 357 2 1 448 0 447 -80 68 -80 67 -17
-1 -18 -1 -35 -9z m-200 -569 l0 -110 -62 0 -63 0 -82 -7 -83 -6 0 96 0 97 23
5 22 5 105 14 105 14 18 1 17 1 0 -110z"/>
</g><g transform="translate(0.000000,256.000000) scale(0.100000,-0.100000)"
fill="#f15a24" stroke="none">
<path d="M8262 2108 l-112 -93 -2 -70 -2 -70 -1 -55 -1 -55 -2 -44 -2 -44 -75
6 -75 7 0 -190 0 -190 48 -1 47 -1 30 -7 30 -6 0 -467 0 -466 5 -6 6 -5 199
34 200 35 13 0 12 0 0 426 0 426 53 -6 52 -5 83 -7 82 -7 0 177 0 176 -22 4
-23 5 -70 6 -70 6 -42 6 -43 5 0 84 0 84 28 0 28 0 119 -15 120 -15 28 0 27 0
0 179 0 180 -42 6 -43 5 -225 30 -225 30 -10 0 -10 0 -113 -92z"/>
<path d="M9071 1626 l-91 -91 0 -201 0 -200 78 -71 77 -70 70 -7 70 -8 132
-18 133 -19 10 -6 10 -6 0 -38 0 -39 -12 -10 -13 -10 -175 -6 -175 -6 -102 -7
-103 -6 0 -168 0 -169 13 0 12 0 390 62 390 62 83 75 82 74 0 158 0 158 -70
62 -70 63 -218 36 -217 35 -3 51 -3 51 13 11 13 10 108 -12 108 -12 7 -10 7
-11 160 -19 160 -20 3 100 3 100 -73 72 -73 72 -290 36 -290 36 -31 4 -31 4
-92 -92z"/>
</g><g transform="translate(560 300) scale(1.05)"><g transform="translate(0.000000,54.000000) scale(0.100000,-0.100000)"
fill="#6b6b6b" stroke="none">
<path d="M308 360 c-9 -6 -19 -24 -23 -40 -4 -17 -11 -30 -16 -30 -5 0 -9 -9
-9 -20 0 -11 4 -20 10 -20 5 0 10 -30 12 -67 3 -62 5 -68 26 -71 21 -3 22 0
22 67 0 65 2 70 23 73 29 4 29 32 -1 36 -30 4 -25 36 6 40 34 5 30 42 -5 42
-16 0 -36 -5 -45 -10z"/>
<path d="M434 269 c-29 -32 -26 -115 5 -140 32 -26 102 -26 126 1 28 31 31
100 5 133 -18 23 -29 27 -69 27 -36 0 -53 -5 -67 -21z m90 -22 c13 -9 17 -23
14 -52 -3 -38 -4 -40 -38 -40 -33 0 -35 2 -38 36 -2 24 3 42 13 53 20 19 26
20 49 3z"/>
<path d="M640 198 c0 -87 0 -88 25 -88 24 0 25 3 25 58 0 63 11 82 47 82 16 0
23 6 23 19 0 17 -8 19 -60 18 l-60 0 0 -89z"/>
</g></g><g transform="translate(720 268) scale(12.8)"><path fill="#CB3837" d="M0,0h18v6H9v1H5V6H0V0z M1,5h2V2h1v3h1V1H1V5z M6,1v5h2V5h2V1H6z M8,2h1v2H8V2z M11,1v4h2V2h1v3h1V2h1v3h1V1H11z"/><polygon fill="#FFFFFF" points="1,5 3,5 3,2 4,2 4,5 5,5 5,1 1,1 "/><path fill="#FFFFFF" d="M6,1v5h2V5h2V1H6z M9,4H8V2h1V4z"/><polygon fill="#FFFFFF" points="11,1 11,5 13,5 13,2 14,2 14,5 15,5 15,2 16,2 16,5 17,5 17,1 "/></g></svg>
