<svg xmlns="http://www.w3.org/2000/svg" viewBox="0 0 996 360" role="img" aria-label="deCMPfs for npm"><g transform="translate(0.000000,256.000000) scale(0.100000,-0.100000)"
fill="#f5f2ec" stroke="none">
<path d="M4497 2534 l-118 -13 -179 -163 -180 -162 0 -956 0 -955 113 -112
112 -111 155 -11 c85 -6 170 -11 188 -11 l32 0 0 954 0 953 121 8 c107 6 123
5 140 -11 19 -17 19 -41 19 -969 l0 -952 83 -6 c106 -9 339 -9 455 -1 l92 7 0
963 0 964 84 0 c45 0 111 -3 145 -6 l61 -7 0 -950 0 -949 43 5 c23 4 110 12
194 18 l152 12 115 117 116 117 -3 952 -4 953 -144 143 -144 143 -215 21
c-118 11 -272 23 -341 26 l-126 7 -85 -92 -85 -91 -68 70 c-37 39 -74 80 -82
91 -14 19 -23 20 -271 19 -143 -1 -309 -7 -375 -15z"/>
<path d="M3420 2314 l-405 -94 -157 -157 -158 -158 0 -676 0 -675 68 -64 c37
-35 110 -106 163 -158 l96 -94 406 -78 c223 -43 415 -81 426 -85 21 -6 21 -5
21 294 0 280 -1 301 -17 301 -19 0 -40 3 -402 44 -188 22 -217 28 -237 47
l-24 22 0 472 0 472 25 23 c19 18 48 26 147 41 68 10 200 30 293 44 94 14 180
28 193 30 l22 5 0 248 c0 247 0 249 -23 270 -13 12 -25 22 -28 21 -2 0 -186
-43 -409 -95z"/>
<path d="M6590 1223 l0 -1159 238 53 c130 29 245 56 254 59 16 5 18 25 20 187
l3 182 268 35 268 36 109 109 110 110 0 505 -1 505 -129 132 -129 131 -488
132 c-268 72 -496 133 -505 136 -17 5 -18 -54 -18 -1153z m781 476 c17 -22 19
-49 19 -340 0 -288 -2 -317 -17 -331 -14 -12 -49 -17 -143 -19 l-125 -4 -3
365 c-1 201 0 370 2 376 3 7 41 5 126 -6 107 -15 125 -20 141 -41z"/>
<path d="M1215 2210 c-38 -10 -141 -35 -227 -56 l-157 -37 -3 -146 -3 -146
-312 -45 -313 -45 -95 -95 -95 -95 0 -360 0 -360 92 -92 93 -92 220 -35 c121
-19 358 -58 526 -86 168 -27 316 -50 328 -50 l21 0 0 880 c0 484 -1 880 -2
879 -2 0 -34 -9 -73 -19z m-385 -1026 l0 -267 -47 6 c-27 4 -106 11 -178 18
-89 8 -136 16 -148 27 -15 13 -17 37 -17 212 0 174 2 200 18 218 14 18 38 23
152 35 74 8 154 15 178 16 l42 1 0 -266z"/>
<path d="M2340 2069 c-19 -4 -183 -38 -365 -75 l-330 -66 -112 -117 -112 -116
-1 -488 0 -489 113 -114 112 -114 445 -75 c245 -41 454 -75 463 -75 16 0 17
20 17 224 0 124 -4 227 -8 230 -4 2 -161 19 -347 36 -187 17 -346 33 -353 35
-9 4 -12 28 -10 92 l3 88 357 3 357 2 1 448 0 447 -80 68 c-81 68 -89 71 -150
56z m-200 -569 l0 -110 -62 0 c-35 0 -100 -3 -145 -7 l-83 -6 0 96 c0 92 1 97
23 102 22 5 218 32 250 34 15 1 17 -10 17 -109z"/>
</g><g transform="translate(0.000000,256.000000) scale(0.100000,-0.100000)"
fill="#f15a24" stroke="none">
<path d="M8262 2108 l-112 -93 -2 -70 c-1 -38 -3 -95 -3 -125 -1 -30 -2 -75
-3 -99 l-2 -44 -75 6 -75 7 0 -190 0 -190 48 -1 c26 -1 60 -4 77 -8 l30 -6 0
-467 c0 -256 2 -469 5 -472 3 -3 96 10 205 29 110 19 206 35 213 35 9 0 12 92
12 426 l0 426 53 -6 c28 -3 89 -8 135 -12 l82 -7 0 177 c0 202 13 180 -115
191 -38 3 -89 8 -112 12 l-43 5 0 84 0 84 28 0 c15 0 82 -7 147 -15 66 -8 132
-15 148 -15 l27 0 0 179 0 180 -42 6 c-188 25 -495 65 -503 65 -6 0 -61 -42
-123 -92z"/>
<path d="M9071 1626 l-91 -91 0 -201 0 -200 78 -71 c77 -69 78 -70 147 -77
120 -13 334 -44 345 -51 14 -9 12 -81 -2 -93 -7 -5 -92 -12 -188 -16 -96 -3
-221 -9 -277 -13 l-103 -6 0 -168 c0 -129 3 -169 13 -169 6 0 188 28 402 62
l390 62 83 75 82 74 0 158 0 158 -70 62 -70 63 -218 36 -217 35 -3 51 c-2 33
2 55 10 62 16 13 226 -8 236 -24 4 -6 79 -19 167 -30 l160 -20 3 100 3 100
-73 72 -73 72 -290 36 c-159 20 -304 38 -321 40 -28 4 -40 -5 -123 -88z"/>
</g><g transform="translate(560 292) scale(1.05)"><g transform="translate(0.000000,54.000000) scale(0.100000,-0.100000)"
fill="#b9b3ab" stroke="none">
<path d="M308 360 c-9 -6 -19 -24 -23 -40 -4 -17 -11 -30 -16 -30 -5 0 -9 -9
-9 -20 0 -11 4 -20 10 -20 5 0 10 -30 12 -67 3 -62 5 -68 26 -71 21 -3 22 0
22 67 0 65 2 70 23 73 29 4 29 32 -1 36 -30 4 -25 36 6 40 34 5 30 42 -5 42
-16 0 -36 -5 -45 -10z"/>
<path d="M434 269 c-29 -32 -26 -115 5 -140 32 -26 102 -26 126 1 28 31 31
100 5 133 -18 23 -29 27 -69 27 -36 0 -53 -5 -67 -21z m90 -22 c13 -9 17 -23
14 -52 -3 -38 -4 -40 -38 -40 -33 0 -35 2 -38 36 -2 24 3 42 13 53 20 19 26
20 49 3z"/>
<path d="M640 198 c0 -87 0 -88 25 -88 24 0 25 3 25 58 0 63 11 82 47 82 16 0
23 6 23 19 0 17 -8 19 -60 18 l-60 0 0 -89z"/>
</g></g><g transform="translate(735 288) scale(0.95)"><g transform="translate(0.000000,60.000000) scale(0.100000,-0.100000)"
fill="#cb3837" stroke="none">
<path d="M0 300 l0 -300 800 0 800 0 0 300 0 300 -800 0 -800 0 0 -300z m455
109 c-13 -5 -15 -8 -5 -8 10 -1 11 -4 4 -9 -6 -4 -14 -15 -17 -25 -5 -14 -2
-20 13 -24 18 -5 20 -14 20 -84 0 -48 -4 -79 -10 -79 -11 0 -9 -45 3 -56 14
-15 6 -20 -27 -16 l-33 4 -7 110 c-3 60 -4 113 -1 118 4 7 -74 2 -83 -5 -1 -1
-4 -55 -5 -119 l-2 -116 -65 0 c-36 0 -69 4 -75 8 -6 4 -11 70 -11 157 l-2
150 162 1 c89 1 152 -2 141 -7z m418 3 c-8 -5 -9 -13 -3 -22 12 -19 13 -117 1
-124 -5 -3 -5 -25 0 -48 4 -24 8 -60 9 -81 l0 -38 -83 3 -83 3 -3 -40 c-1 -22
-3 -40 -4 -41 -1 -1 -31 -4 -67 -7 -42 -4 -58 -3 -45 3 11 5 14 9 8 9 -9 1
-12 23 -10 83 2 68 -1 83 -13 83 -18 0 -27 85 -11 112 8 14 10 15 11 3 0 -13
1 -13 10 0 15 23 12 57 -6 74 -8 9 -12 16 -7 16 4 0 1 5 -7 10 -10 6 40 10
150 10 91 0 160 -4 153 -8z m566 -147 l-2 -155 -27 2 c-24 2 -26 4 -16 20 8
14 8 21 -2 27 -8 5 -16 40 -20 91 -5 58 -11 85 -22 90 -27 13 -100 27 -100 19
0 -4 4 -9 9 -11 5 -1 13 -57 18 -124 l8 -120 -39 -3 -39 -2 7 116 c4 63 9 121
12 128 3 9 -15 12 -69 13 l-74 0 11 -28 c6 -15 14 -28 18 -28 4 0 8 -21 8 -46
0 -27 -4 -43 -10 -39 -6 4 -10 -5 -10 -19 0 -14 5 -26 10 -26 6 0 10 -16 10
-36 l0 -37 -46 7 c-26 3 -60 6 -75 6 l-29 0 0 154 0 154 235 0 235 1 -1 -154z"/>
<path d="M714 327 c-3 -8 -4 -45 -2 -83 l3 -69 47 -3 47 -3 7 37 c4 20 3 58
-2 83 -9 45 -10 46 -52 49 -29 2 -44 -1 -48 -11z"/>
<path d="M630 139 c0 -43 4 -59 12 -57 17 6 15 118 -2 118 -6 0 -10 -27 -10
-61z"/>
</g></g><g transform="translate(735 288) scale(0.95)"><g transform="translate(0.000000,60.000000) scale(0.100000,-0.100000)"
fill="#ffffff" stroke="none">
<path d="M150 260 l0 -160 80 0 80 0 0 115 0 115 40 0 39 0 3 -117 3 -118 38
-3 37 -3 0 165 0 166 -160 0 -160 0 0 -160z"/>
<path d="M555 408 c-2 -7 -3 -98 -2 -203 l2 -190 80 0 80 0 3 38 3 37 80 0 79
0 0 165 0 165 -160 0 c-120 0 -162 -3 -165 -12z m245 -158 l0 -80 -40 0 -40 0
0 80 0 80 40 0 40 0 0 -80z"/>
<path d="M970 265 c0 -85 -1 -158 -2 -162 -4 -11 59 -16 109 -8 l43 6 0 115 0
114 39 0 38 0 7 -112 c4 -62 9 -114 11 -116 2 -2 19 -5 37 -5 l33 -2 3 118 3
117 39 0 40 0 0 -120 0 -120 35 0 35 0 0 165 0 165 -235 0 -235 0 0 -155z"/>
</g></g></svg>
