<svg xmlns="http://www.w3.org/2000/svg" viewBox="0 0 996 256" role="img" aria-label="deCMPfs"><g transform="translate(0.000000,256.000000) scale(0.100000,-0.100000)" fill="#f5f2ec" stroke="none"><path d="m4497 2534-118-13-179-163-180-162V285l113-112 112-111 155-11 155-11h65v1907l121 8 120 7 20-18 19-17V23l83-6 82-7h282l91 6 92 7v1927h167l62-6 61-7V38l43 5 42 6 152 12 152 12 115 117 116 117-3 952-4 953-144 143-144 143-215 21-215 20-126 6-126 7-85-92-85-91-68 70-68 70-14 21-14 20-257-1-257-1z"/><path d="m3420 2314-405-94-157-157-158-158V554l68-64 67-64 96-94 96-94 406-78 406-78 20-7 21-6v601h-35l-85 10-85 10-214 24-214 25-23 22-24 22v944l25 23 24 23 123 18 123 19 170 25 170 25 23 5 22 5v497l-23 21-23 22-5-1-4-1z"/><path d="M6590 1223V64l238 53 237 53 17 6 18 5 2 182 3 182 268 35 268 36 109 109 110 110v505l-1 505-129 132-129 131-488 132-488 131-17 5-18 5zm781 476 19-24v-632l-17-15-18-16-125-3-125-4-3 365-2 365 4 11 4 10 122-16 123-17z"/><path d="m1215 2210-70-18-157-38-157-37-3-146-3-146-312-45-313-45-95-95-95-95V825l92-92 93-92 220-35 220-35 306-51 306-50h43v1760l-2-1-3-1zM830 1184V917l-47 6-48 6-130 12-130 11-18 16-17 15v395l18 20 17 21 135 14 135 14 43 2 42 1z"/><path d="m2340 2069-35-8-330-67-330-66-112-117-112-116-1-488V718l113-114 112-114 445-75 446-75h34v449l-8 5-8 5-339 31-340 31-13 4-13 5 3 87 3 88 357 3 357 2 1 448v447l-80 68-80 67-17-1-18-1zm-200-569v-110h-125l-82-7-83-6v193l23 5 22 5 105 14 105 14 18 1 17 1z"/></g><g transform="translate(0.000000,256.000000) scale(0.100000,-0.100000)" fill="#f15a24" stroke="none"><path d="m8262 2108-112-93-2-70-2-70-1-55-1-55-2-44-2-44-75 6-75 7v-380l48-1 47-1 30-7 30-6V362l5-6 6-5 199 34 200 35h25v852l53-6 52-5 83-7 82-7v353l-22 4-23 5-70 6-70 6-42 6-43 5v168h56l119-15 120-15h55v359l-42 6-43 5-225 30-225 30h-20z"/><path d="m9071 1626-91-91v-401l78-71 77-70 70-7 70-8 132-18 133-19 10-6 10-6v-77l-12-10-13-10-175-6-175-6-102-7-103-6V470h25l390 62 390 62 83 75 82 74v316l-70 62-70 63-218 36-217 35-3 51-3 51 13 11 13 10 108-12 108-12 7-10 7-11 160-19 160-20 3 100 3 100-73 72-73 72-290 36-290 36-31 4-31 4z"/></g></svg>