<svg xmlns="http://www.w3.org/2000/svg" viewBox="0 0 996 256" role="img" aria-label="deCMPfs"><g transform="translate(0.000000,256.000000) scale(0.100000,-0.100000)"
fill="#1a1626" stroke="none">
<path d="M4497 2534 l-118 -13 -179 -163 -180 -162 0 -956 0 -955 113 -112
112 -111 155 -11 c85 -6 170 -11 188 -11 l32 0 0 954 0 953 121 8 c107 6 123
5 140 -11 19 -17 19 -41 19 -969 l0 -952 83 -6 c106 -9 339 -9 455 -1 l92 7 0
963 0 964 84 0 c45 0 111 -3 145 -6 l61 -7 0 -950 0 -949 43 5 c23 4 110 12
194 18 l152 12 115 117 116 117 -3 952 -4 953 -144 143 -144 143 -215 21
c-118 11 -272 23 -341 26 l-126 7 -85 -92 -85 -91 -68 70 c-37 39 -74 80 -82
91 -14 19 -23 20 -271 19 -143 -1 -309 -7 -375 -15z"/>
<path d="M3420 2314 l-405 -94 -157 -157 -158 -158 0 -676 0 -675 68 -64 c37
-35 110 -106 163 -158 l96 -94 406 -78 c223 -43 415 -81 426 -85 21 -6 21 -5
21 294 0 280 -1 301 -17 301 -19 0 -40 3 -402 44 -188 22 -217 28 -237 47
l-24 22 0 472 0 472 25 23 c19 18 48 26 147 41 68 10 200 30 293 44 94 14 180
28 193 30 l22 5 0 248 c0 247 0 249 -23 270 -13 12 -25 22 -28 21 -2 0 -186
-43 -409 -95z"/>
<path d="M6590 1223 l0 -1159 238 53 c130 29 245 56 254 59 16 5 18 25 20 187
l3 182 268 35 268 36 109 109 110 110 0 505 -1 505 -129 132 -129 131 -488
132 c-268 72 -496 133 -505 136 -17 5 -18 -54 -18 -1153z m781 476 c17 -22 19
-49 19 -340 0 -288 -2 -317 -17 -331 -14 -12 -49 -17 -143 -19 l-125 -4 -3
365 c-1 201 0 370 2 376 3 7 41 5 126 -6 107 -15 125 -20 141 -41z"/>
<path d="M1215 2210 c-38 -10 -141 -35 -227 -56 l-157 -37 -3 -146 -3 -146
-312 -45 -313 -45 -95 -95 -95 -95 0 -360 0 -360 92 -92 93 -92 220 -35 c121
-19 358 -58 526 -86 168 -27 316 -50 328 -50 l21 0 0 880 c0 484 -1 880 -2
879 -2 0 -34 -9 -73 -19z m-385 -1026 l0 -267 -47 6 c-27 4 -106 11 -178 18
-89 8 -136 16 -148 27 -15 13 -17 37 -17 212 0 174 2 200 18 218 14 18 38 23
152 35 74 8 154 15 178 16 l42 1 0 -266z"/>
<path d="M2340 2069 c-19 -4 -183 -38 -365 -75 l-330 -66 -112 -117 -112 -116
-1 -488 0 -489 113 -114 112 -114 445 -75 c245 -41 454 -75 463 -75 16 0 17
20 17 224 0 124 -4 227 -8 230 -4 2 -161 19 -347 36 -187 17 -346 33 -353 35
-9 4 -12 28 -10 92 l3 88 357 3 357 2 1 448 0 447 -80 68 c-81 68 -89 71 -150
56z m-200 -569 l0 -110 -62 0 c-35 0 -100 -3 -145 -7 l-83 -6 0 96 c0 92 1 97
23 102 22 5 218 32 250 34 15 1 17 -10 17 -109z"/>
</g><g transform="translate(0.000000,256.000000) scale(0.100000,-0.100000)"
fill="#f15a24" stroke="none">
<path d="M8262 2108 l-112 -93 -2 -70 c-1 -38 -3 -95 -3 -125 -1 -30 -2 -75
-3 -99 l-2 -44 -75 6 -75 7 0 -190 0 -190 48 -1 c26 -1 60 -4 77 -8 l30 -6 0
-467 c0 -256 2 -469 5 -472 3 -3 96 10 205 29 110 19 206 35 213 35 9 0 12 92
12 426 l0 426 53 -6 c28 -3 89 -8 135 -12 l82 -7 0 177 c0 202 13 180 -115
191 -38 3 -89 8 -112 12 l-43 5 0 84 0 84 28 0 c15 0 82 -7 147 -15 66 -8 132
-15 148 -15 l27 0 0 179 0 180 -42 6 c-188 25 -495 65 -503 65 -6 0 -61 -42
-123 -92z"/>
<path d="M9071 1626 l-91 -91 0 -201 0 -200 78 -71 c77 -69 78 -70 147 -77
120 -13 334 -44 345 -51 14 -9 12 -81 -2 -93 -7 -5 -92 -12 -188 -16 -96 -3
-221 -9 -277 -13 l-103 -6 0 -168 c0 -129 3 -169 13 -169 6 0 188 28 402 62
l390 62 83 75 82 74 0 158 0 158 -70 62 -70 63 -218 36 -217 35 -3 51 c-2 33
2 55 10 62 16 13 226 -8 236 -24 4 -6 79 -19 167 -30 l160 -20 3 100 3 100
-73 72 -73 72 -290 36 c-159 20 -304 38 -321 40 -28 4 -40 -5 -123 -88z"/>
</g></svg>
