<svg xmlns="http://www.w3.org/2000/svg" viewBox="0 0 256 256" role="img" aria-label="deCMPfs"><rect width="256" height="256" rx="48" fill="#1a1626"/><g transform="translate(-688.5 11.1) scale(0.91)"><g transform="translate(0.000000,256.000000) scale(0.100000,-0.100000)" fill="#f15a24" stroke="none"><path d="m8262 2108-112-93-2-70-2-70-1-55-1-55-2-44-2-44-75 6-75 7v-380l48-1 47-1 30-7 30-6V362l5-6 6-5 199 34 200 35h25v852l53-6 52-5 83-7 82-7v353l-22 4-23 5-70 6-70 6-42 6-43 5v168h56l119-15 120-15h55v359l-42 6-43 5-225 30-225 30h-20z"/><path d="m9071 1626-91-91v-401l78-71 77-70 70-7 70-8 132-18 133-19 10-6 10-6v-77l-12-10-13-10-175-6-175-6-102-7-103-6V470h25l390 62 390 62 83 75 82 74v316l-70 62-70 63-218 36-217 35-3 51-3 51 13 11 13 10 108-12 108-12 7-10 7-11 160-19 160-20 3 100 3 100-73 72-73 72-290 36-290 36-31 4-31 4z"/></g></g></svg>
