<svg xmlns="http://www.w3.org/2000/svg" viewBox="0 0 996 342" role="img" aria-label="deCMPfs for npm"><g transform="translate(0.000000,256.000000) scale(0.100000,-0.100000)" fill="#1a1626" stroke="none"><path d="m4497 2534-118-13-179-163-180-162V285l113-112 112-111 155-11 155-11h65v1907l121 8 120 7 20-18 19-17V23l83-6 82-7h282l91 6 92 7v1927h167l62-6 61-7V38l43 5 42 6 152 12 152 12 115 117 116 117-3 952-4 953-144 143-144 143-215 21-215 20-126 6-126 7-85-92-85-91-68 70-68 70-14 21-14 20-257-1-257-1z"/><path d="m3420 2314-405-94-157-157-158-158V554l68-64 67-64 96-94 96-94 406-78 406-78 20-7 21-6v601h-35l-85 10-85 10-214 24-214 25-23 22-24 22v944l25 23 24 23 123 18 123 19 170 25 170 25 23 5 22 5v497l-23 21-23 22-5-1-4-1z"/><path d="M6590 1223V64l238 53 237 53 17 6 18 5 2 182 3 182 268 35 268 36 109 109 110 110v505l-1 505-129 132-129 131-488 132-488 131-17 5-18 5zm781 476 19-24v-632l-17-15-18-16-125-3-125-4-3 365-2 365 4 11 4 10 122-16 123-17z"/><path d="m1215 2210-70-18-157-38-157-37-3-146-3-146-312-45-313-45-95-95-95-95V825l92-92 93-92 220-35 220-35 306-51 306-50h43v1760l-2-1-3-1zM830 1184V917l-47 6-48 6-130 12-130 11-18 16-17 15v395l18 20 17 21 135 14 135 14 43 2 42 1z"/><path d="m2340 2069-35-8-330-67-330-66-112-117-112-116-1-488V718l113-114 112-114 445-75 446-75h34v449l-8 5-8 5-339 31-340 31-13 4-13 5 3 87 3 88 357 3 357 2 1 448v447l-80 68-80 67-17-1-18-1zm-200-569v-110h-125l-82-7-83-6v193l23 5 22 5 105 14 105 14 18 1 17 1z"/></g><g transform="translate(0.000000,256.000000) scale(0.100000,-0.100000)" fill="#f15a24" stroke="none"><path d="m8262 2108-112-93-2-70-2-70-1-55-1-55-2-44-2-44-75 6-75 7v-380l48-1 47-1 30-7 30-6V362l5-6 6-5 199 34 200 35h25v852l53-6 52-5 83-7 82-7v353l-22 4-23 5-70 6-70 6-42 6-43 5v168h56l119-15 120-15h55v359l-42 6-43 5-225 30-225 30h-20z"/><path d="m9071 1626-91-91v-401l78-71 77-70 70-7 70-8 132-18 133-19 10-6 10-6v-77l-12-10-13-10-175-6-175-6-102-7-103-6V470h25l390 62 390 62 83 75 82 74v316l-70 62-70 63-218 36-217 35-3 51-3 51 13 11 13 10 108-12 108-12 7-10 7-11 160-19 160-20 3 100 3 100-73 72-73 72-290 36-290 36-31 4-31 4z"/></g><g transform="translate(734.87421686747 252.2336) scale(0.11693)"><g transform="translate(0.000000,413.835591) scale(0.100000,-0.100000)" fill="#6b6b6b" stroke="none"><path d="M1450 4133c-405-43-717-239-874-548-89-176-126-357-126-621v-174H0v-630h450V50h790v2110h720v630h-720v158c1 338 76 465 315 534 68 19 104 22 245 23 91 0 189-4 218-8l52-8v628l-107 11c-99 11-429 14-513 5"/><path d="M3175 2815c-195-32-356-87-500-173-94-55-261-215-320-307-168-257-248-606-231-1012 30-732 366-1168 998-1295 165-33 501-33 666 0 527 106 852 432 961 967 67 324 46 752-50 1040-139 415-430 667-884 765-132 29-501 37-640 15m407-599c226-48 348-216 387-531 14-116 14-424 0-540-47-383-219-549-552-533-265 13-401 146-464 453-28 142-26 591 4 730 28 124 87 247 148 309 105 105 297 150 477 112"/><path d="M6605 2819c-233-30-427-142-551-315-50-70-79-82-88-36-3 15-12 70-21 122s-20 119-26 148l-10 52h-649V50h790v1798l51 46c165 148 338 201 657 201h202l-2 354-3 355-28 7c-48 13-248 18-322 8"/></g></g><g transform="translate(838.26 251.60) scale(8.2)"><path fill="#CB3837" d="M0 0h18v6H9v1H5V6H0zm1 5h2V2h1v3h1V1H1zm5-4v5h2V5h2V1zm2 1h1v2H8zm3-1v4h2V2h1v3h1V2h1v3h1V1z"/><polygon fill="#FFFFFF" points="1,5 3,5 3,2 4,2 4,5 5,5 5,1 1,1"/><path fill="#FFFFFF" d="M6 1v5h2V5h2V1zm3 3H8V2h1z"/><polygon fill="#FFFFFF" points="11,1 11,5 13,5 13,2 14,2 14,5 15,5 15,2 16,2 16,5 17,5 17,1"/></g></svg>