<svg xmlns="http://www.w3.org/2000/svg" viewBox="-6.527 2.221 32.279 32.279" role="img" aria-label="Socket decmpfs"><defs><linearGradient id="socket-brand-plate" gradientUnits="userSpaceOnUse" x1="-6.527" y1="0" x2="25.753" y2="0"><stop offset="0%" stop-color="#ff00aa"/><stop offset="100%" stop-color="#8c50ff"/></linearGradient></defs><rect data-socket-layer="plate" x="-6.527" y="2.221" width="32.279" height="32.279" fill="url(#socket-brand-plate)"/><path data-socket-layer="shield" fill="#ffffff" d="M18.44 8.84c.46.16.76.6.76 1.1-.04 3.58.23 8.63-.38 10.88-1.04 4.5-4.42 8.4-8.8 10.1a1.2 1.2 0 0 1-.84 0C4.52 29.15.92 24.73.18 19.8c-.06-.31-.1-.67-.13-.98-.04-.2-.05-1.14-.05-5.17V9.91a1.15 1.15 0 0 1 .76-1.07c2.8-1.02 5.38-1.93 8.2-2.96l.24-.1q.38-.12.77 0l2.24.81z"/><g data-socket-layer="glyph" transform="translate(2.013 9.2) scale(0.63333)"><g transform="translate(0.320 29.026) scale(0.0018526 -0.0018526)"><path fill="url(#socket-brand-plate)" fill-rule="nonzero" d="M6150 15085c-36-13-139-50-230-83s-331-119-535-192c-264-94-376-138-391-155-25-27-24-23-54-405-27-338-27-340-167-379-130-36-559-162-683-201-69-21-264-79-435-130-170-50-344-102-385-115s-203-63-360-110c-556-169-592-181-671-233-146-95-263-262-302-427-16-68-41-293-92-820-14-143-32-327-41-410-20-185-14-257 26-343 63-134 161-215 304-252 78-20 106-20 1901-20 1334 0 1831 3 1856 11 40 14 85 53 106 93 11 21 24 148 48 465 19 240 38 492 44 561s24 314 41 545 35 465 40 520c20 197 140 1923 140 2010 0 46-4 56-26 74-33 26-52 25-134-4m-1361-2200c41-21 55-63 47-143-7-74-37-445-61-757-17-218-20-228-85-272l-33-23H3103l-34 23c-19 12-42 38-51 57-15 33-15 51 2 291 12 158 24 269 33 290 8 19 32 50 54 70 42 38 52 42 263 99 63 17 167 47 230 65 364 107 1111 313 1138 314 13 1 36-6 51-14m2426 1645c-89-11-141-27-229-73-96-50-203-152-259-248-72-124-85-185-113-553-23-309-42-544-79-961-8-93-28-332-45-530-16-198-37-439-46-535s-14-206-11-245c12-162 66-292 164-396 69-72 133-115 230-152l58-22 1897-3c2056-3 1946-5 1982 50 13 20 15 77 16 380 1 239-2 363-9 377-7 12-25 22-44 25-17 3-448 8-957 11-509 4-1181 10-1495 14-631 8-614 7-655 74-31 49-29 201 3 248 38 58 75 70 202 64 60-3 281-10 490-15 209-6 569-17 800-25 492-17 974-33 1345-44 148-5 275-5 288 0 12 5 25 16 29 25 6 15-11 234-43 554-30 298-84 436-233 594-101 106-155 137-566 319-143 63-357 159-475 212s-244 110-280 125-108 47-160 70c-293 129-928 397-1225 517-88 36-186 76-218 89-109 46-252 68-362 54m752-1166c226-85 377-142 493-185 58-22 146-55 195-74 480-180 552-216 635-317 52-61 62-91 34-102-9-3-51-4-93-1s-179 10-306 16c-126 5-427 21-668 35-241 13-451 24-467 24-18 0-43 12-65 31-33 30-35 34-35 98 0 95 29 436 39 463 12 32 51 64 83 67 4 1 73-24 155-55m-5682-2926c-80-15-207-82-275-145-163-150-250-359-250-596 0-296 56-1048 106-1417 14-108 74-448 94-535 18-77 71-210 113-283 53-94 177-215 267-260 124-62 119-62 1041-62 799 0 838 1 860 18 18 16 22 28 21 68-3 60-38 484-52 611-6 51-10 112-10 136 0 30-7 53-21 71l-20 26h-587c-379 0-600 4-625 11-50 14-106 64-129 116-21 47-36 179-67 593-50 658-50 645-13 698 46 64 27 62 705 62 606 0 615 0 641 21 24 19 26 26 25 92 0 40-10 224-22 409-20 296-25 339-41 357-19 21-22 21-865 20-480-1-868-5-896-11m2568-2c-191-47-347-199-415-406-27-84-31-108-31-210 0-63 8-198 17-300 8-102 41-486 71-855 30-368 64-785 75-925 33-398 40-483 40-518 0-21 9-41 25-57l24-25h399c395 0 400 0 427 22 27 21 28 22 22 107-39 537-60 825-77 1026-18 212-29 373-70 979-12 174-5 215 45 262 45 42 106 57 209 52 70-4 91-9 125-31 81-54 77-16 95-797 9-382 21-895 26-1140 10-436 10-445 31-462 19-16 53-18 384-18 210 0 374 4 389 10 14 5 28 20 30 32 6 25 34 1284 42 1878 6 405 9 426 69 479 44 38 91 51 185 51 91 0 147-24 194-83 30-38 31-41 29-140-2-56-10-183-18-282s-28-373-45-610c-17-236-35-475-40-530-13-134-49-635-51-709-3-101-26-96 441-96 382 0 398 1 423 20 29 23 23-32 72 605 20 248 44 547 55 665s31 370 45 560 34 443 45 564c25 279 25 352-1 446-50 180-163 323-313 395-116 55-139 57-721 53l-530-3-82-33c-58-23-99-49-143-88l-62-55-41 38c-55 50-99 77-183 110l-69 28-545 2c-417 1-557-1-597-11m3688-3c-19-17-22-36-36-233-8-118-22-298-30-400s-24-311-35-465-29-383-40-510c-21-244-66-825-102-1316-11-162-18-306-15-320 12-47 30-49 463-49h405l22 23c22 21 23 35 41 351 19 357 21 369 78 404 32 20 53 21 473 24 426 4 442 5 510 27 138 45 254 133 337 254 91 133 114 233 133 567 55 954 55 955 44 1051-20 181-81 313-199 431-88 86-200 149-304 167-39 7-345 11-892 11-777 0-833-1-853-17m1272-877c42-17 85-68 92-109 4-18 0-146-8-285-15-244-16-255-41-292-45-68-68-75-266-78-193-3-222 4-263 60-20 27-20 30-3 315 19 317 25 340 85 380 32 22 44 23 203 23 120 0 178-4 201-14M3905 6773c-260-36-493-235-579-495-54-161-56-334-6-532 25-98 25-133 0-173-36-60-61-66-295-68-116-1-221-6-233-9-33-11-29-58 10-114 379-559 768-1015 1148-1346 244-213 745-476 1172-616 148-48 189-33 154 57-10 26-35 93-56 148-20 55-58 152-83 215-224 568-337 865-337 885 0 13 10 35 23 49l22 26 547 2 548 3 25 25c21 22 30 55 70 270 25 135 55 287 66 337 24 116 24 138-1 163-20 20-33 20-791 20-857 0-817-3-860 67-15 23-23 57-26 101-4 58-2 71 19 101 12 19 36 44 51 55 28 21 36 21 857 26 751 5 831 7 846 21 11 12 34 115 74 338 33 177 62 331 65 341 13 41 8 83-10 96-16 12-223 14-1204 13-652-1-1199-4-1216-6m3247-13c-114-30-205-84-298-175-85-84-151-183-183-276-11-30-59-249-107-488l-88-433 12-81c23-159 126-310 260-380 127-67 125-67 740-67h553l24-25c33-32 31-65-6-135-54-102-142-180-245-215-63-22-591-58-1237-85-131-5-246-14-257-20-24-13-24-11-64-245-29-166-116-638-147-790-9-48 8-81 49-92 15-3 122-1 237 5 756 43 1397 229 1965 572 134 81 208 136 348 263 316 284 712 812 767 1022 21 80 19 190-4 263-36 117-154 231-280 270-52 16-116 17-817 13l-762-3-42 23c-50 28-70 63-70 119 0 77 48 153 120 190 33 17 96 19 981 25 665 6 950 11 961 19 8 6 61 83 118 171s156 240 222 338c65 98 118 186 118 196 0 9-5 22-12 29-9 9-333 12-1397 11-1334 0-1389-1-1459-19"/></g></g></svg>